# xmcd
#
# Track frame offsets:
#	150
#	17215
#	32703
#	48573
#	63578
#	78951
#	96231
#	109644
#	123499
#	138864
#	154707
#	172120
#	183563
#	199043
#	215428
#	227308
#	242293
#	258676
#	273039
#	284089
#	298477
#
# Disc length: 4134 seconds
#
# Revision: 1
# Processed by: cddbd v1.5.2PL0 Copyright (c) Steve Scherf et al.
# Submitted via: audiograbber 1.83.01
#
DISCID=36102415
DTITLE=Various Artist - Halland's Country Hits Volume 1
DYEAR=1900
DGENRE=
TTITLE0=Paul Overstreet - All The Fun
TTITLE1=Paul Overstreet - Ball And Chain
TTITLE2=Paul Overstreet - Daddy's Come Around
TTITLE3=Paul Overstreet - Love Helps Those
TTITLE4=Paul Overstreet - Seein' My Father In Me
TTITLE5=Paul Overstreet - Sowin' Love
TTITLE6=Lee Roy Parnell - Love Without Mercy
TTITLE7=Lee Roy Parnell - Tender Moment
TTITLE8=Lee Roy Parnell - The Rock
TTITLE9=Lee Roy Parnell - What Kind Of Fool Do You Think I Am
TTITLE10=Dolly Parton - Silver And Gold
TTITLE11=Dolly Parton - Why'd You Come In Here Lookin' Like That
TTITLE12=Dolly Parton and Ricky Van Shelton - Rockin' Years
TTITLE13=Eddie Rabbitt - On Second Thought
TTITLE14=Eddy Raven - I'm Gonna Get You
TTITLE15=Eddy Raven - In A Letter To You
TTITLE16=Eddy Raven - Sooner Or Later
TTITLE17=Collin Raye - All I Can Be (Is A Sweet Memory)
TTITLE18=Collin Raye - Every Second
TTITLE19=Collin Raye - In This Life
TTITLE20=Collin Raye - I Want You Bad (& That Ain't Good)
EXTD=
EXTT0=
EXTT1=
EXTT2=
EXTT3=
EXTT4=
EXTT5=
EXTT6=
EXTT7=
EXTT8=
EXTT9=
EXTT10=
EXTT11=
EXTT12=
EXTT13=
EXTT14=
EXTT15=
EXTT16=
EXTT17=
EXTT18=
EXTT19=
EXTT20=
PLAYORDER=
